<svg width="20" height="20" viewBox="0 0 20 20" fill="none" xmlns="http://www.w3.org/2000/svg">
    <path d="M10 0C4.47301 0 0 4.4725 0 10C0 15.5269 4.4725 20 10 20C15.527 20 20 15.5275 20 10C20 4.47301 15.5275 0 10 0ZM10 18.6046C5.25539 18.6046 1.39535 14.7446 1.39535 10C1.39535 5.25535 5.25539 1.39535 10 1.39535C14.7446 1.39535 18.6046 5.25535 18.6046 10C18.6046 14.7446 14.7446 18.6046 10 18.6046Z" fill="#C39126"/>
    <path d="M9.70475 12.6533C9.15189 12.6533 8.70436 13.114 8.70436 13.6668C8.70436 14.2065 9.13873 14.6804 9.70475 14.6804C10.2708 14.6804 10.7183 14.2065 10.7183 13.6668C10.7183 13.114 10.2576 12.6533 9.70475 12.6533ZM9.87584 4.97925C8.09881 4.97925 7.28271 6.03233 7.28271 6.74311C7.28271 7.25647 7.71709 7.49343 8.07248 7.49343C8.7833 7.49343 8.49373 6.47983 9.83635 6.47983C10.4945 6.47983 11.021 6.76944 11.021 7.37495C11.021 8.08573 10.2839 8.49378 9.84951 8.86233C9.46775 9.19136 8.9676 9.73108 8.9676 10.8631C8.9676 11.5476 9.15189 11.745 9.69154 11.745C10.3365 11.745 10.4681 11.4555 10.4681 11.2053C10.4681 10.5208 10.4813 10.126 11.2053 9.55995C11.5607 9.28355 12.6795 8.38843 12.6795 7.15112C12.6795 5.91382 11.5607 4.97925 9.87584 4.97925Z" fill="#C39126"/>
    </svg>
    